# xmcd CD database file
#
# Track frame offsets:
#	150
#	12091
#	28508
#	44240
#	64682
#	84879
#	106676
#	120833
#	146160
#	155749
#	169595
#	184614
#	195627
#	206595
#	223424
#	234562
#	254824
#	272913
#	287010
#	307967
#	324541
#	336540
#	347274
#
# Disc length: 4774 seconds
#
# Revision: 0
# Processed by: cddbd v1.5.2PL0 Copyright (c) Steve Scherf et al.
# Submitted via: CDex 1.70beta2
#
DISCID=5612a417
DTITLE=Cash Johnny - Gone But Not Forgotten
DYEAR=2004
DGENRE=Country
TTITLE0=Spoken - Janette Carter
TTITLE1=Folsom Prison Blues
TTITLE2=I Walk The Line
TTITLE3=Sunday Morning Coming Down
TTITLE4=Ring Of Fire
TTITLE5=Oh Come, Angel Band
TTITLE6=Big River
TTITLE7=Understand Your Men
TTITLE8=Spoken - Janette Carter
TTITLE9=Jackson
TTITLE10=If I Were A Carpenter
TTITLE11=The Far Side Banks Of Jordan
TTITLE12=Spoken
TTITLE13=Daddy Sang Bass
TTITLE14=Spoken - Johnny Cash
TTITLE15=Oh Come, Angel Band (Rosie Carter)
TTITLE16=The Far Side Banks Of Jordan (Laura Cash)
TTITLE17=Ring Of Fire
TTITLE18=I Walk The Line
TTITLE19=Tears In The Holden River (w. Nitty Gritty Dirt Band)
TTITLE20=The Wonder of You
TTITLE21=One More Ride
TTITLE22=The Next Time I'm In Town
EXTD=YEAR: 2004
EXTT0=
EXTT1=
EXTT2=
EXTT3=
EXTT4=
EXTT5=
EXTT6=
EXTT7=
EXTT8=
EXTT9=
EXTT10=
EXTT11=
EXTT12=
EXTT13=
EXTT14=
EXTT15=
EXTT16=
EXTT17=
EXTT18=
EXTT19=
EXTT20=
EXTT21=
EXTT22=
PLAYORDER=
